<svg width="1635" height="175" viewBox="0 0 1635 175" fill="none" xmlns="http://www.w3.org/2000/svg">
<path d="M1599 0V175H1585.5H1577.5H1564V0H1577.5H1585.5H1599Z" fill="#26ECEC"/>
<path d="M1628.02 0H1623.8H1617V175H1623.8H1628.02H1635V0H1628.02Z" fill="#26ECEC"/>
<path d="M157.681 0H119.9V49.3509C131.297 58.1244 138.791 71.9114 138.791 87.4217C138.791 102.932 131.297 116.719 119.9 125.492V174.843H181.256V0H157.681Z" fill="#26ECEC"/>
<path d="M90.706 107.632C101.743 107.632 110.689 98.6535 110.689 87.5781C110.689 76.5028 101.743 67.5244 90.706 67.5244C79.6695 67.5244 70.7227 76.5028 70.7227 87.5781C70.7227 98.6535 79.6695 107.632 90.706 107.632Z" fill="#CF6321"/>
<path d="M23.5741 175H61.3552V125.649C49.9584 116.876 42.4647 103.089 42.4647 87.5783C42.4647 72.068 49.9584 58.2811 61.3552 49.5076V0H0V175H23.5741Z" fill="#26ECEC"/>
<path d="M157.681 0H119.9V49.3509C131.297 58.1244 138.791 71.9114 138.791 87.4217C138.791 102.932 131.297 116.719 119.9 125.492V174.843H181.256V0H157.681Z" fill="#26ECEC"/>
<path d="M90.706 107.632C101.743 107.632 110.689 98.6535 110.689 87.5781C110.689 76.5028 101.743 67.5244 90.706 67.5244C79.6695 67.5244 70.7227 76.5028 70.7227 87.5781C70.7227 98.6535 79.6695 107.632 90.706 107.632Z" fill="#FF6100"/>
<path d="M23.5741 175H61.3552V125.649C49.9584 116.876 42.4647 103.089 42.4647 87.5783C42.4647 72.068 49.9584 58.2811 61.3552 49.5076V0H0V175H23.5741Z" fill="#26ECEC"/>
<path d="M1529 175H216V0H1529V175ZM966.075 35.1465C945.979 35.1465 937.283 36.6926 930.52 41.5234C924.626 45.678 922.017 53.4076 922.017 65.9678C922.017 84.4219 926.655 91.9591 939.505 95.2441C944.722 96.5002 953.225 97.3698 970.133 98.3359C980.954 98.9156 983.08 100.654 983.08 107.9C983.08 112.055 982.211 114.374 980.182 116.113C977.863 118.046 976.51 118.239 967.524 118.239C954.868 118.239 953.612 118.045 951.293 116.21C949.167 114.664 948.201 112.055 948.201 107.707V105.679H921.921C921.921 118.239 922.79 123.746 926.075 128.867C931.293 137.273 941.244 139.882 967.524 139.882C987.911 139.882 996.317 138.046 1003.08 132.152C1008.3 127.515 1010.33 120.364 1010.33 106.451C1010.33 89.833 1006.65 83.07 995.351 79.4951C988.781 77.4661 988.491 77.4656 963.467 75.6299C954.675 75.0502 953.804 74.8573 952.065 73.3115C950.52 72.0555 949.746 69.5428 949.746 66.1611C949.746 57.9488 953.032 56.1133 966.462 56.1133C978.152 56.1133 980.954 57.9489 980.954 66.1611V68.0938H1007.23L1007.43 63.4561C1007.43 54.7606 1005.69 48.5771 1001.82 43.9395C996.51 37.2728 987.718 35.1465 966.075 35.1465ZM399 35.0439C389.411 35.3146 382.898 36.2366 378.248 37.7598C367.91 41.4313 360.76 48.3883 358.441 57.084C356.412 64.0405 355.64 74.0891 355.64 92.833C355.64 103.074 355.929 108.292 356.702 112.64C358.731 122.785 363.079 129.258 371.099 134.186C377.348 138.171 384.871 139.607 399 139.771V115.844C385.155 115.319 384.142 111.581 384.142 88.6777C384.142 73.4125 384.529 68.2918 386.268 64.9102H386.364C388.435 60.8481 391.294 59.2826 399 58.8574V35.0439ZM1339 35.0488C1329.52 35.3265 1323.06 36.247 1318.45 37.7598C1308.11 41.4313 1300.96 48.3883 1298.64 57.084C1296.61 64.0405 1295.84 74.0891 1295.84 92.833C1295.84 103.074 1296.13 108.292 1296.9 112.64C1298.93 122.785 1303.28 129.258 1311.3 134.186C1317.52 138.152 1325 139.593 1339 139.769V115.835C1325.34 115.281 1324.34 111.471 1324.34 88.6777C1324.34 73.4126 1324.73 68.2918 1326.46 64.9102H1326.56C1328.61 60.8829 1331.44 59.3082 1339 58.8672V35.0488ZM667 35.0518C657.58 35.3334 651.157 36.253 646.558 37.7598C636.22 41.4313 629.07 48.3884 626.751 57.084C624.722 64.0405 623.949 74.0892 623.949 92.833C623.949 103.074 624.239 108.292 625.012 112.64C627.041 122.785 631.389 129.258 639.408 134.186C645.612 138.141 653.07 139.586 667 139.768V115.826C653.542 115.242 652.549 111.354 652.549 88.6777C652.549 73.4127 652.935 68.2918 654.674 64.9102H654.771C656.805 60.9203 659.599 59.3378 667 58.8799V35.0518ZM1159.21 35.0527C1134.77 35.0527 1126.85 36.8889 1118.54 44.9082C1111.49 51.8647 1108.97 61.0434 1108.97 78.1445C1108.97 95.246 1109.65 109.643 1110.71 114.764C1112.74 124.909 1118.44 132.155 1127.23 136.31C1133.51 139.208 1138.06 139.691 1156.9 139.691C1166.36 139.691 1173.13 139.304 1176.22 138.725C1181.34 137.855 1186.94 135.343 1190.62 132.251C1197.86 126.261 1199.51 120.85 1199.7 103.072V99.9805H1172.26C1172.45 101.139 1172.45 102.588 1172.45 102.879C1172.45 113.41 1168.88 116.019 1155.25 116.02C1140.28 116.02 1137.19 112.638 1137.19 96.4062C1137.19 74.9569 1137.48 69.5456 1138.73 65.9707C1140.47 60.6568 1144.34 58.8213 1154.38 58.8213C1164.43 58.8213 1168.49 59.8839 1170.33 63.1689C1171.39 65.1979 1171.58 66.261 1171.87 72.7344H1199.21C1199.02 63.9424 1198.93 61.1401 1198.44 57.5654C1197.09 48.0002 1193.03 42.0095 1185.5 38.4346C1179.5 35.6326 1174.48 35.0527 1159.21 35.0527ZM677 58.8047C685.093 59.1619 688.186 60.8157 690.036 65.1035C691.582 68.775 691.872 72.7363 691.872 86.2627C691.872 99.7893 691.389 104.427 689.843 108.485C687.852 113.544 684.936 115.397 677 115.821V139.683C697.621 138.999 707.871 134.906 713.998 125.104C718.926 117.374 719.988 110.321 719.988 88.002C719.988 73.6058 719.699 66.0692 718.636 61.2383C716.51 50.2238 710.712 42.9777 700.857 38.6299V38.5332C695.279 36.1423 688.888 35.1337 677 34.9814V58.8047ZM1349 58.8154C1356.94 59.1919 1359.99 60.8528 1361.83 65.1035C1363.37 68.775 1363.66 72.7363 1363.66 86.2627C1363.66 99.7893 1363.18 104.427 1361.63 108.485C1359.66 113.5 1356.78 115.365 1349 115.811V139.679C1369.55 138.984 1379.77 134.888 1385.89 125.104C1390.81 117.374 1391.88 110.321 1391.88 88.002C1391.88 73.6058 1391.59 66.0692 1390.52 61.2383C1388.4 50.2238 1382.6 42.9777 1372.75 38.6299V38.5332C1367.18 36.1498 1360.82 35.1405 1349 34.9834V58.8154ZM409 58.8252C416.791 59.2199 419.812 60.8882 421.63 65.1035C423.176 68.7749 423.466 72.7364 423.466 86.2627C423.466 99.7893 422.982 104.427 421.437 108.485C419.48 113.457 416.63 115.334 409 115.8V139.671C429.414 138.956 439.591 134.857 445.688 125.104C450.615 117.374 451.679 110.321 451.679 88.002C451.679 73.6058 451.388 66.0692 450.325 61.2383C448.2 50.2239 442.403 42.9777 432.548 38.6299V38.5332C427.018 36.1631 420.69 35.1511 409 34.9854V58.8252ZM251 139.016H278.633V98.5322H314.479V139.016H342.305V35.8262H314.575V74.7637H278.729V35.8262H251V139.016ZM465.108 139.016H536.124V115.344H492.839V35.8262H465.108V139.016ZM545.593 139.016H616.607V115.344H573.322V35.8262H545.593V139.016ZM746.367 139.016H785.691L793.421 106.648C794.774 101.141 796.029 95.9233 797.285 90.5127C797.478 90.0296 798.058 86.9375 799.024 82.2998C799.701 79.4016 800.474 75.8273 800.764 74.2812H801.826C803.952 85.1024 806.078 96.0205 808.59 106.648L815.739 139.016H855.643L878.639 35.8262H850.909L842.89 75.5371C840.184 88.967 837.672 102.107 835.354 115.247H834.387C833.324 110.416 832.358 105.972 831.295 101.334C830.522 97.3726 828.493 88.8703 825.401 75.5371L815.836 35.8262H787.334L777.285 75.6338L772.357 95.5371L770.039 105.392L767.913 115.247H766.851C765.788 108.387 764.725 101.914 763.469 95.4404L759.797 75.5371L752.067 35.8262H724.338L746.367 139.016ZM1206.85 59.498H1233.04V139.016H1260.67V59.498H1288.49V35.8262H1206.85V59.498ZM1023.56 138.919H1099.22V116.213H1051.29V96.1162H1095.25V77.083H1051.2V58.5322H1098.25V35.8262H1023.56V138.919ZM1405.21 138.919H1432.94V111.575H1433V62H1433.03V59.498H1453.61C1463.76 59.498 1465.79 61.6237 1465.79 71.8652C1465.79 85.7783 1464.05 88.29 1454.97 88.29H1443V111.575H1453.52C1461.73 111.285 1465.4 115.634 1465.11 125.199V138.919H1493.23V120.078C1493.52 107.421 1487.33 100.561 1474.68 99.9814V98.9189C1481.92 97.0832 1484.44 96.1168 1487.04 93.9912C1492.16 89.9332 1494 82.9764 1494 68.001C1494 53.9913 1491.58 46.744 1484.92 41.8164C1478.93 37.1788 1472.26 35.8262 1457.38 35.8262H1405.21V138.919Z" fill="#FEFEFF"/>
</svg>
